<?xml version="1.0" encoding="UTF-8"?><svg id="artwork" xmlns="http://www.w3.org/2000/svg" xmlns:xlink="http://www.w3.org/1999/xlink" viewBox="0 0 216 129.6"><defs><style>.cls-1{fill:url(#linear-gradient);}.cls-2{fill:#fff;}.cls-3{fill:#8dc63f;}.cls-4{fill:#231f20;}</style><linearGradient id="linear-gradient" x1="5.86" y1="38.31" x2="76.28" y2="38.31" gradientTransform="matrix(1, 0, 0, 1, 0, 0)" gradientUnits="userSpaceOnUse"><stop offset="0" stop-color="#00a4e4"/><stop offset="1" stop-color="#8dc63f"/></linearGradient></defs><g><rect class="cls-3" x="154.93" y="50.98" width="55.21" height="55.21"/><g><path class="cls-4" d="M64.27,61.46c2.21-.37,5.1-.68,8.78-.68,4.52,0,7.84,1.05,9.94,2.94,1.89,1.68,3.1,4.26,3.1,7.41s-.95,5.73-2.73,7.57c-2.47,2.58-6.36,3.89-10.83,3.89-1.37,0-2.63-.05-3.68-.31v14.2h-4.57V61.46Zm4.57,17.09c1,.26,2.26,.37,3.79,.37,5.52,0,8.89-2.73,8.89-7.52s-3.37-6.99-8.36-6.99c-2,0-3.52,.16-4.31,.37v13.78Z"/><path class="cls-4" d="M112.49,83.55c0,9.41-6.57,13.52-12.67,13.52-6.84,0-12.2-5.05-12.2-13.09,0-8.47,5.63-13.46,12.62-13.46s12.25,5.31,12.25,13.04Zm-20.14,.26c0,5.57,3.15,9.78,7.68,9.78s7.73-4.15,7.73-9.89c0-4.31-2.16-9.73-7.62-9.73s-7.78,5.05-7.78,9.83Z"/><path class="cls-4" d="M118.33,59.15h4.63v37.34h-4.63V59.15Z"/><path class="cls-4" d="M132.43,71.03l5.52,15.04c.63,1.68,1.26,3.68,1.68,5.21h.1c.47-1.53,1-3.47,1.63-5.31l5.05-14.93h4.89l-6.94,18.14c-3.31,8.73-5.57,13.15-8.73,15.93-2.31,1.95-4.52,2.73-5.68,2.94l-1.16-3.84c1.16-.37,2.68-1.1,4.05-2.26,1.26-1,2.79-2.79,3.89-5.15,.21-.47,.37-.84,.37-1.11s-.1-.63-.37-1.21l-9.36-23.45h5.05Z"/><path class="cls-2" d="M168.45,61.04v35.44h-7.99V61.04h7.99Z"/><path class="cls-2" d="M174.87,61.57c2.94-.47,6.78-.79,10.78-.79,6.78,0,11.2,1.26,14.57,3.79,3.68,2.73,5.99,7.1,5.99,13.36,0,6.78-2.47,11.46-5.84,14.36-3.73,3.1-9.46,4.57-16.41,4.57-4.15,0-7.15-.26-9.1-.53V61.57Zm7.99,28.87c.68,.16,1.84,.16,2.79,.16,7.31,.05,12.09-3.94,12.09-12.41,0-7.36-4.31-11.25-11.25-11.25-1.74,0-2.95,.16-3.63,.32v23.19Z"/></g></g><g><path class="cls-4" d="M63.99,113.97c.63-.1,1.44-.19,2.49-.19,1.28,0,2.22,.3,2.82,.83,.54,.48,.88,1.21,.88,2.1s-.27,1.62-.77,2.15c-.7,.73-1.8,1.1-3.07,1.1-.39,0-.75-.02-1.04-.09v4.02h-1.3v-9.92Zm1.3,4.84c.28,.08,.64,.1,1.07,.1,1.56,0,2.52-.77,2.52-2.13s-.95-1.98-2.37-1.98c-.57,0-1,.04-1.22,.1v3.9Z"/><path class="cls-4" d="M78.17,120.23c0,2.67-1.86,3.83-3.59,3.83-1.94,0-3.46-1.43-3.46-3.71,0-2.4,1.59-3.81,3.58-3.81s3.47,1.5,3.47,3.7Zm-5.71,.07c0,1.58,.89,2.77,2.17,2.77s2.19-1.18,2.19-2.8c0-1.22-.61-2.76-2.16-2.76s-2.2,1.43-2.2,2.79Z"/><path class="cls-4" d="M79.97,113.32h1.31v10.58h-1.31v-10.58Z"/><path class="cls-4" d="M84.12,116.69l1.56,4.26c.18,.48,.36,1.04,.48,1.47h.03c.13-.43,.28-.98,.46-1.5l1.43-4.23h1.39l-1.97,5.14c-.94,2.47-1.58,3.72-2.47,4.51-.65,.55-1.28,.77-1.61,.83l-.33-1.09c.33-.1,.76-.31,1.15-.64,.36-.28,.79-.79,1.1-1.46,.06-.13,.1-.24,.1-.31s-.03-.18-.1-.34l-2.65-6.65h1.43Z"/><path class="cls-4" d="M90.81,118.64c0-.76-.03-1.36-.06-1.95h1.15l.06,1.18h.04c.4-.68,1.07-1.33,2.28-1.33,.97,0,1.71,.6,2.03,1.45h.03c.22-.42,.52-.72,.82-.94,.43-.33,.89-.51,1.58-.51,.97,0,2.38,.63,2.38,3.13v4.23h-1.28v-4.07c0-1.4-.52-2.22-1.56-2.22-.76,0-1.33,.55-1.56,1.18-.06,.19-.1,.42-.1,.66v4.45h-1.28v-4.32c0-1.15-.51-1.97-1.5-1.97-.8,0-1.42,.65-1.62,1.31-.07,.18-.1,.42-.1,.64v4.34h-1.28v-5.26Z"/><path class="cls-4" d="M104.11,120.53c.03,1.77,1.15,2.5,2.47,2.5,.94,0,1.52-.16,2-.37l.24,.94c-.46,.21-1.27,.46-2.41,.46-2.22,0-3.55-1.47-3.55-3.65s1.28-3.87,3.38-3.87c2.37,0,2.98,2.06,2.98,3.38,0,.27-.01,.46-.04,.61h-5.07Zm3.84-.94c.02-.82-.34-2.12-1.82-2.12-1.34,0-1.91,1.21-2.01,2.12h3.83Z"/><path class="cls-4" d="M111,118.94c0-.85-.02-1.58-.06-2.25h1.15l.06,1.43h.04c.33-.97,1.13-1.58,2.01-1.58,.13,0,.24,.02,.36,.03v1.24c-.13-.03-.27-.03-.45-.03-.92,0-1.58,.69-1.76,1.67-.03,.18-.05,.4-.05,.61v3.84h-1.31v-4.96Z"/><path class="cls-4" d="M120.66,113.86v10.04h-1.31v-10.04h1.31Z"/><path class="cls-4" d="M123.18,118.64c0-.76-.02-1.36-.06-1.95h1.16l.07,1.19h.03c.36-.67,1.19-1.34,2.38-1.34,1,0,2.55,.6,2.55,3.07v4.29h-1.31v-4.16c0-1.16-.43-2.13-1.67-2.13-.85,0-1.52,.61-1.76,1.34-.06,.16-.09,.39-.09,.61v4.34h-1.31v-5.26Z"/><path class="cls-4" d="M131.92,116.69l1.42,4.04c.24,.67,.43,1.27,.58,1.86h.04c.16-.6,.37-1.19,.61-1.86l1.4-4.04h1.37l-2.83,7.21h-1.25l-2.74-7.21h1.4Z"/><path class="cls-4" d="M139.31,120.53c.03,1.77,1.15,2.5,2.47,2.5,.94,0,1.52-.16,2-.37l.24,.94c-.46,.21-1.27,.46-2.41,.46-2.22,0-3.55-1.47-3.55-3.65s1.28-3.87,3.38-3.87c2.37,0,2.98,2.06,2.98,3.38,0,.27-.02,.46-.04,.61h-5.07Zm3.84-.94c.02-.82-.34-2.12-1.82-2.12-1.34,0-1.91,1.21-2.01,2.12h3.83Z"/><path class="cls-4" d="M146.19,118.94c0-.85-.02-1.58-.06-2.25h1.15l.06,1.43h.04c.33-.97,1.13-1.58,2.01-1.58,.14,0,.24,.02,.36,.03v1.24c-.13-.03-.27-.03-.45-.03-.92,0-1.58,.69-1.76,1.67-.03,.18-.04,.4-.04,.61v3.84h-1.31v-4.96Z"/><path class="cls-4" d="M151.03,122.57c.4,.24,1.09,.51,1.74,.51,.94,0,1.39-.46,1.39-1.07s-.37-.95-1.33-1.31c-1.31-.48-1.92-1.18-1.92-2.04,0-1.16,.95-2.12,2.49-2.12,.73,0,1.37,.19,1.76,.45l-.31,.95c-.28-.18-.8-.43-1.47-.43-.78,0-1.19,.45-1.19,.98,0,.6,.42,.86,1.36,1.24,1.24,.46,1.89,1.09,1.89,2.16,0,1.28-1,2.17-2.68,2.17-.79,0-1.52-.21-2.03-.51l.31-.98Z"/><path class="cls-4" d="M157.99,120.53c.03,1.77,1.15,2.5,2.47,2.5,.94,0,1.52-.16,2-.37l.24,.94c-.46,.21-1.27,.46-2.41,.46-2.22,0-3.55-1.47-3.55-3.65s1.28-3.87,3.38-3.87c2.37,0,2.98,2.06,2.98,3.38,0,.27-.02,.46-.04,.61h-5.07Zm3.84-.94c.02-.82-.34-2.12-1.82-2.12-1.34,0-1.91,1.21-2.01,2.12h3.83Z"/><path class="cls-4" d="M168.23,114c.79-.13,1.73-.22,2.76-.22,1.86,0,3.19,.45,4.07,1.25,.91,.82,1.43,1.98,1.43,3.61s-.52,2.98-1.44,3.9c-.95,.94-2.5,1.44-4.46,1.44-.94,0-1.7-.04-2.35-.12v-9.86Zm1.3,8.88c.33,.05,.8,.06,1.31,.06,2.79,0,4.28-1.55,4.28-4.26,.02-2.37-1.33-3.87-4.07-3.87-.67,0-1.18,.06-1.52,.13v7.94Z"/><path class="cls-4" d="M179.04,120.53c.03,1.77,1.15,2.5,2.47,2.5,.94,0,1.52-.16,2-.37l.24,.94c-.46,.21-1.27,.46-2.41,.46-2.22,0-3.55-1.47-3.55-3.65s1.28-3.87,3.38-3.87c2.37,0,2.98,2.06,2.98,3.38,0,.27-.02,.46-.04,.61h-5.07Zm3.84-.94c.02-.82-.34-2.12-1.82-2.12-1.34,0-1.91,1.21-2.01,2.12h3.83Z"/><path class="cls-4" d="M185.75,122.57c.4,.24,1.09,.51,1.74,.51,.94,0,1.38-.46,1.38-1.07s-.37-.95-1.32-1.31c-1.31-.48-1.92-1.18-1.92-2.04,0-1.16,.95-2.12,2.49-2.12,.73,0,1.37,.19,1.76,.45l-.31,.95c-.28-.18-.8-.43-1.48-.43-.78,0-1.19,.45-1.19,.98,0,.6,.42,.86,1.36,1.24,1.24,.46,1.89,1.09,1.89,2.16,0,1.28-1,2.17-2.68,2.17-.79,0-1.52-.21-2.03-.51l.31-.98Z"/><path class="cls-4" d="M193.44,114.66c0,.45-.31,.8-.83,.8-.48,0-.79-.36-.79-.8s.33-.82,.82-.82,.8,.36,.8,.82Zm-1.46,9.24v-7.21h1.31v7.21h-1.31Z"/><path class="cls-4" d="M201.78,122.84c0,1.67-.34,2.67-1.03,3.31-.72,.64-1.73,.86-2.64,.86s-1.82-.21-2.4-.6l.33-1.01c.48,.31,1.22,.58,2.12,.58,1.34,0,2.32-.7,2.32-2.53v-.79h-.03c-.39,.67-1.18,1.21-2.29,1.21-1.79,0-3.07-1.52-3.07-3.52,0-2.44,1.59-3.81,3.26-3.81,1.25,0,1.92,.64,2.25,1.24h.03l.04-1.09h1.16c-.04,.51-.06,1.1-.06,1.97v4.19Zm-1.31-3.31c0-.22-.02-.42-.08-.58-.24-.77-.86-1.4-1.83-1.4-1.25,0-2.14,1.06-2.14,2.73,0,1.42,.73,2.59,2.13,2.59,.82,0,1.55-.51,1.82-1.34,.07-.22,.1-.48,.1-.7v-1.3Z"/><path class="cls-4" d="M204,118.64c0-.76-.02-1.36-.06-1.95h1.16l.08,1.19h.03c.36-.67,1.19-1.34,2.38-1.34,1,0,2.55,.6,2.55,3.07v4.29h-1.31v-4.16c0-1.16-.43-2.13-1.67-2.13-.85,0-1.52,.61-1.76,1.34-.06,.16-.09,.39-.09,.61v4.34h-1.31v-5.26Z"/></g><g><path class="cls-4" d="M68.85,30.87c-1.81,0-3.48,.65-4.77,1.73l-17.74-16.15c.82-1.2,1.31-2.65,1.31-4.21,0-4.11-3.33-7.43-7.43-7.43s-7.43,3.33-7.43,7.43c0,.79,.13,1.56,.36,2.27l-13.65,6.55c-1.33-2.01-3.61-3.34-6.2-3.34-4.11,0-7.43,3.33-7.43,7.43s3.33,7.43,7.43,7.43c1.2,0,2.33-.29,3.34-.8l4.47,6.51-4.47,6.51c-1-.51-2.13-.8-3.34-.8-4.11,0-7.43,3.33-7.43,7.43s3.33,7.43,7.43,7.43c2.8,0,5.23-1.55,6.5-3.83l13.42,6.86c-.27,.77-.42,1.59-.42,2.45,0,4.11,3.33,7.43,7.43,7.43s7.43-3.33,7.43-7.43c0-1.56-.49-3.01-1.31-4.21l17.74-16.15c1.29,1.08,2.95,1.73,4.77,1.73,4.11,0,7.43-3.33,7.43-7.43s-3.33-7.43-7.43-7.43Zm-28.63,26.06c-1.2,0-2.33,.29-3.34,.8l-8.58-12.48,5.74-2.8c1.33,1.99,3.6,3.3,6.18,3.3,3.76,0,6.86-2.8,7.36-6.42h13.91c.16,1.18,.59,2.27,1.23,3.2l-17.74,16.15c-1.29-1.08-2.95-1.73-4.77-1.73Zm0-37.25c1.81,0,3.48-.65,4.77-1.73l17.74,16.15c-.64,.93-1.07,2.02-1.23,3.2h-13.91c-.49-3.63-3.59-6.43-7.36-6.43-2.57,0-4.84,1.31-6.18,3.3l-5.74-2.8,8.58-12.48c1,.51,2.13,.8,3.34,.8Zm-7.06,16.3c-.24,.73-.38,1.51-.38,2.32s.13,1.59,.38,2.32l-6.01,2.93-3.61-5.26,3.61-5.26,6.01,2.93Zm.86-19.64c.34,.52,.75,.98,1.21,1.4l-8.75,12.73-6.13-2.99c.24-.73,.38-1.51,.38-2.32s-.13-1.56-.36-2.27l13.65-6.55Zm-15.73,14.31c.44-.4,.84-.86,1.18-1.36l5.85,2.86-3,4.37-4.03-5.87Zm4.03,9.43l3,4.37-5.85,2.86c-.34-.5-.74-.95-1.18-1.36l4.03-5.87Zm-1.8,13.07c.13-.55,.21-1.12,.21-1.71,0-.81-.13-1.59-.38-2.32l6.13-2.99,8.75,12.73c-.41,.37-.78,.79-1.1,1.24l-13.61-6.96Z"/><path class="cls-1" d="M68.85,30.87c-1.81,0-3.48,.65-4.77,1.73l-17.74-16.15c.82-1.2,1.31-2.65,1.31-4.21,0-4.11-3.33-7.43-7.43-7.43s-7.43,3.33-7.43,7.43c0,.79,.13,1.56,.36,2.27l-13.65,6.55c-1.33-2.01-3.61-3.34-6.2-3.34-4.11,0-7.43,3.33-7.43,7.43s3.33,7.43,7.43,7.43c1.2,0,2.33-.29,3.34-.8l4.47,6.51-4.47,6.51c-1-.51-2.13-.8-3.34-.8-4.11,0-7.43,3.33-7.43,7.43s3.33,7.43,7.43,7.43c2.8,0,5.23-1.55,6.5-3.83l13.42,6.86c-.27,.77-.42,1.59-.42,2.45,0,4.11,3.33,7.43,7.43,7.43s7.43-3.33,7.43-7.43c0-1.56-.49-3.01-1.31-4.21l17.74-16.15c1.29,1.08,2.95,1.73,4.77,1.73,4.11,0,7.43-3.33,7.43-7.43s-3.33-7.43-7.43-7.43Zm-28.63,26.06c-1.2,0-2.33,.29-3.34,.8l-8.58-12.48,5.74-2.8c1.33,1.99,3.6,3.3,6.18,3.3,3.76,0,6.86-2.8,7.36-6.42h13.91c.16,1.18,.59,2.27,1.23,3.2l-17.74,16.15c-1.29-1.08-2.95-1.73-4.77-1.73Zm0-37.25c1.81,0,3.48-.65,4.77-1.73l17.74,16.15c-.64,.93-1.07,2.02-1.23,3.2h-13.91c-.49-3.63-3.59-6.43-7.36-6.43-2.57,0-4.84,1.31-6.18,3.3l-5.74-2.8,8.58-12.48c1,.51,2.13,.8,3.34,.8Zm-7.06,16.3c-.24,.73-.38,1.51-.38,2.32s.13,1.59,.38,2.32l-6.01,2.93-3.61-5.26,3.61-5.26,6.01,2.93Zm.86-19.64c.34,.52,.75,.98,1.21,1.4l-8.75,12.73-6.13-2.99c.24-.73,.38-1.51,.38-2.32s-.13-1.56-.36-2.27l13.65-6.55Zm-15.73,14.31c.44-.4,.84-.86,1.18-1.36l5.85,2.86-3,4.37-4.03-5.87Zm4.03,9.43l3,4.37-5.85,2.86c-.34-.5-.74-.95-1.18-1.36l4.03-5.87Zm-1.8,13.07c.13-.55,.21-1.12,.21-1.71,0-.81-.13-1.59-.38-2.32l6.13-2.99,8.75,12.73c-.41,.37-.78,.79-1.1,1.24l-13.61-6.96Z"/></g></svg>